<svg width="178" height="198" viewBox="0 0 178 198" fill="none" xmlns="http://www.w3.org/2000/svg">
<path d="M117.445 31.68C117.445 49.1764 103.274 63.36 85.7945 63.36C68.3146 63.36 54.1443 49.1764 54.1443 31.68C54.1443 14.1836 68.3146 0 85.7945 0C103.274 0 117.445 14.1836 117.445 31.68Z" fill="#201A4B"/>
<path d="M7.79934 132.216C-0.339284 131.828 -0.543826 141.105 0.371231 145.793V186.362C0.371231 188.431 3.06257 193.367 4.40823 195.576L11.3519 196.707L29.7607 198H64.9635L89.5086 196.707H128.748C139.406 196.653 161.949 196.351 166.858 195.576C171.767 194.8 175.578 191.265 176.87 189.595L178 179.574L176.87 162.926C176.654 154.575 176.353 137.452 176.87 135.771C177.516 133.67 175.739 130.114 174.286 129.629C173.123 129.241 163.467 131.192 158.784 132.216L118.575 133.67H54.1443C42.0871 133.347 15.938 132.603 7.79934 132.216Z" fill="#201A4B"/>
<path d="M43.3251 52.369C16.8422 73.4459 9.145 114.059 8.60673 131.731V132.253L83.5 135.771L158.784 132.216L168.5 130.278C168.769 126.184 165.986 110.169 153.455 80.1698C140.924 50.1708 109.557 39.1788 97.5 36C89.103 33.6294 69.8079 31.2921 43.3251 52.369Z" fill="#201A4B"/>
</svg>
