<svg width="189" height="254" viewBox="0 0 189 254" fill="none" xmlns="http://www.w3.org/2000/svg">
<path fill-rule="evenodd" clip-rule="evenodd" d="M2.47058 206.97V202.028L4.94117 196.058L6.79411 144.381L10.0882 113.705L17.5 88.3813L27.3824 67.999L34.7941 47.4107L37.2647 38.9695L45.0882 30.3225L53.7353 24.3519L59.9118 18.3813L64.6471 15.9107L71.4412 9.94012L80.0882 6.44012L90.3824 2.52836L101.5 0.675415L106.235 1.49894L115.294 2.52836L125.794 6.44012L129.5 7.67542L136.294 11.1754L146.382 19.4107L153.588 27.4401L161.824 40.6166L165.324 48.8519L170.882 67.7931L173.765 81.3813V93.5284V102.793L177.059 127.293L179.529 148.911L181.794 169.499L184.059 185.146L185.706 196.675L189 207.175L133.824 217.47L111.794 214.793L114.471 191.94L116.324 174.44L118.176 165.175L119.824 147.264L121.265 129.352L122.706 114.117L124.765 106.293L118.176 110.617L109.735 114.117L103.353 116.175H95.7353L88.1177 114.94L81.9412 112.058L71.4412 104.646L66.0882 100.528L67.1177 106.293V117.411V135.528L67.9412 147.264L69.1765 163.94L70.4118 183.705L73.5 205.117L66.0882 208.617H58.8824H53.9412H49.8235H35.8235L25.5294 207.175H11.3235L4.94117 208.617L2.47058 206.97ZM73.0882 69.2342L78.2352 60.1754L82.5588 51.3224C87.4313 48.7832 97.9588 43.7048 101.088 43.7048C102.735 45.1459 106.565 48.193 108.706 48.8518C110.847 49.5107 120.304 54.4793 124.765 56.8812L120.853 60.1754L119.206 63.4695V66.5577L121.676 71.4989L124.765 77.2636L125.794 80.146L123.529 83.2342L120.029 87.3518L118.176 88.9989L115.294 85.7048L110.765 83.2342L95.3235 80.146L80.7058 78.4989L75.7646 77.2636L73.0882 69.2342Z" fill="#201A4B"/>
<circle cx="116.735" cy="214.587" r="3.08824" fill="#201A4B"/>
<path d="M111.177 250.616L115.5 215.205H117.971L122.294 251.028L111.177 250.616Z" fill="#201A4B"/>
<circle r="3.08824" transform="matrix(-1 0 0 1 68.7074 206.368)" fill="#201A4B"/>
<path d="M74.2664 242.397L69.9428 206.985H67.4722L63.1487 242.809L74.2664 242.397Z" fill="#201A4B"/>
<circle cx="130.735" cy="217.058" r="3.08824" fill="#201A4B"/>
<path d="M125.177 253.087L129.5 217.675H131.971L136.294 253.499L125.177 253.087Z" fill="#201A4B"/>
<circle r="3.08824" transform="matrix(-1 0 0 1 54.7077 208.015)" fill="#201A4B"/>
<path d="M60.2664 244.045L55.9428 208.633H53.4722L49.1487 244.456L60.2664 244.045Z" fill="#201A4B"/>
<circle cx="147.618" cy="214.999" r="3.08824" fill="#201A4B"/>
<path d="M142.059 251.028L146.382 215.617H148.853L153.176 251.44L142.059 251.028Z" fill="#201A4B"/>
<circle r="3.08824" transform="matrix(-1 0 0 1 37.8256 208.015)" fill="#201A4B"/>
<path d="M43.3843 244.045L39.0607 208.633H36.5902L32.2666 244.456L43.3843 244.045Z" fill="#201A4B"/>
<circle cx="164.912" cy="211.293" r="3.08824" fill="#201A4B"/>
<path d="M159.353 247.323L163.677 211.911H166.147L170.471 247.734L159.353 247.323Z" fill="#201A4B"/>
<circle r="3.08824" transform="matrix(-1 0 0 1 20.5313 207.192)" fill="#201A4B"/>
<path d="M26.0901 243.221L21.7666 207.809H19.296L14.9724 243.633L26.0901 243.221Z" fill="#201A4B"/>
<circle cx="176.553" cy="209.717" r="3.08824" transform="rotate(-5.28208 176.553 209.717)" fill="#201A4B"/>
<path d="M174.335 246.105L175.38 210.446L177.84 210.218L185.443 245.492L174.335 246.105Z" fill="#201A4B"/>
<circle r="3.08824" transform="matrix(-0.995754 -0.0920592 -0.0920592 0.995754 8.88997 206.851)" fill="#201A4B"/>
<path d="M11.1084 243.239L10.0632 207.579L7.60314 207.352L8.24769e-05 242.625L11.1084 243.239Z" fill="#201A4B"/>
</svg>
