<svg width="168" height="204" viewBox="0 0 168 204" fill="none" xmlns="http://www.w3.org/2000/svg">
<path d="M55.4766 11.1613L55.2466 4.30173C55.2466 1.92595 57.166 0 59.5418 0H95.5006C97.448 0 98.3901 1.68755 98.4108 3.63487L98.4909 11.1613C98.1075 28.0194 97.3408 63.0378 97.3408 68.2464C97.3408 70.9299 97.5545 74.963 97.7616 78.8734L97.7795 79.2112C98.0997 85.257 99.4855 91.202 100.954 97.0755C103.498 107.25 100.708 109.335 99.871 111.496C97.4792 117.675 82.1593 128.703 75.6036 133.47C69.048 138.237 56.1667 153.7 45.5857 166.256C37.4587 175.9 27.0248 176.834 19.7038 175.537C15.8635 174.856 11.8497 173.982 8.72745 171.645C4.29764 168.329 1.80866 162.159 0.271196 156.374C-1.38497 150.142 4.94832 141.376 8.32199 137.772L23.2735 123.588L37.6499 111.496C42.7531 106.734 46.3021 103.652 48.8822 101.066C51.0254 98.9172 53.3366 96.8134 54.7962 94.1528C55.6943 92.5156 55.866 91.0927 56.0517 89.7551L56.6268 79.2914L56.2817 54.5274L55.7067 30.926L55.4766 11.1613Z" fill="#201A4B"/>
<path d="M121.477 39.1613L121.247 32.3017C121.247 29.926 123.166 28 125.542 28H161.501C163.448 28 164.39 29.6876 164.411 31.6349L164.491 39.1613C164.108 56.0194 163.341 91.0378 163.341 96.2464C163.341 98.9299 163.554 102.963 163.762 106.873L163.78 107.211C164.1 113.257 165.486 119.202 166.954 125.075C169.498 135.25 166.708 137.335 165.871 139.496C163.479 145.675 148.056 156.733 141.5 161.5C134.944 166.267 122.167 181.7 111.586 194.256C103.459 203.9 93.0248 204.834 85.7038 203.537C81.8635 202.856 77.8497 201.982 74.7274 199.645C70.2976 196.329 67.8087 190.159 66.2712 184.374C64.615 178.142 70.9483 169.376 74.322 165.772L89.2735 151.588L103.65 139.496C108.753 134.734 112.302 131.652 114.882 129.066C117.025 126.917 119.337 124.813 120.796 122.153C121.694 120.516 121.866 119.093 122.052 117.755L122.627 107.291L122.282 82.5274L121.707 58.926L121.477 39.1613Z" fill="#201A4B"/>
</svg>
