<svg width="68" height="68" viewBox="0 0 68 68" fill="none" xmlns="http://www.w3.org/2000/svg">
<path d="M0 29.88L1.76902 23.3936L17.6902 36.3664L47.7636 49.9289L67.8125 36.956L63.6848 59.3636L9.43478 67.6191L0 29.88Z" fill="#DEE2EF"/>
<path d="M1.76902 23.3936L11.2038 63.4914L9.43478 67.6191L0 29.88L1.76902 23.3936Z" fill="#CCD0DB"/>
<path d="M67.8126 36.956L53.8114 -2.47437e-05L13.001 17.6096L1.76907 23.366L11.204 63.4913L62.397 55.7025L67.8126 36.956Z" fill="url(#paint0_linear)"/>
<path fill-rule="evenodd" clip-rule="evenodd" d="M35.5 27C35.5 26.1716 34.8284 25.5 34 25.5C33.1716 25.5 32.5 26.1716 32.5 27V34H25.5C24.6716 34 24 34.6716 24 35.5C24 36.3284 24.6716 37 25.5 37H32.5V44C32.5 44.8284 33.1716 45.5 34 45.5C34.8284 45.5 35.5 44.8284 35.5 44V37H42.5C43.3284 37 44 36.3284 44 35.5C44 34.6716 43.3284 34 42.5 34H35.5V27Z" fill="#6D60CB"/>
<defs>
<linearGradient id="paint0_linear" x1="64.1061" y1="-8.4901" x2="-30.1381" y2="-0.0970587" gradientUnits="userSpaceOnUse">
<stop stop-color="#E4E9F4"/>
<stop offset="0.359375" stop-color="#F6F4FF"/>
<stop offset="1" stop-color="white"/>
</linearGradient>
</defs>
</svg>
