<svg width="43" height="62" viewBox="0 0 43 62" fill="none" xmlns="http://www.w3.org/2000/svg">
<path d="M11.4927 20.15C12.3527 16.8175 15.0891 12.1675 20.7182 12.1675C24.2364 12.1675 27.0509 14.8025 27.0509 18.5225C27.0509 24.025 22.5945 24.2575 17.8255 27.28C14.3073 29.5275 14.1509 32.3175 14.1509 35.7275V44.175H27.0509V39.835C27.0509 37.2775 27.1291 35.1075 29.7873 33.945C37.2927 30.7675 43 26.1175 43 18.5225C43 7.595 32.5236 0 20.7964 0C3.36182 0 0 14.26 0 14.6475L11.4927 20.15ZM14.1509 55.18C14.1509 58.9 17.2 62 20.7964 62C24.3927 62 27.4418 58.9 27.4418 55.18C27.4418 51.46 24.3927 48.36 20.7964 48.36C17.2 48.36 14.1509 51.46 14.1509 55.18Z" fill="white"/>
</svg>
