<svg width="62" height="61" viewBox="0 0 62 61" fill="none" xmlns="http://www.w3.org/2000/svg">
<path d="M1.07227 38.3914V33.5944L18.5753 48.4648L52.5317 57.716L50.9236 60.9322L3.75245 55.0358L1.07227 38.3914Z" fill="#DEE2EF"/>
<path d="M1.07227 33.5944L13.7999 -3.05176e-05L50.8982 16.0078L61.1084 21.2406L52.3531 57.716L5.99531 50.6357L1.07227 33.5944Z" fill="url(#paint0_linear_65:9955)"/>
<path d="M1.19133 33.5944L2.2634 30.9142L5.8964 50.7475L3.75225 55.0358L0 39.4908L1.19133 33.5944Z" fill="#CCD0DB"/>
<g clip-path="url(#clip0_65:9955)">
<path d="M42.883 25.7454C42.0059 26.1301 41.0713 26.3851 40.0969 26.509C41.0993 25.9105 41.8643 24.97 42.224 23.8364C41.2895 24.3936 40.2576 24.7872 39.1579 25.0069C38.2705 24.062 37.0057 23.4767 35.626 23.4767C32.949 23.4767 30.7939 25.6496 30.7939 28.3133C30.7939 28.6965 30.8263 29.0651 30.9059 29.4159C26.886 29.2198 23.329 27.2932 20.9395 24.3583C20.5223 25.082 20.2776 25.9105 20.2776 26.8023C20.2776 28.4769 21.14 29.9613 22.4254 30.8207C21.6486 30.806 20.8864 30.5804 20.2408 30.2252C20.2408 30.2399 20.2408 30.2591 20.2408 30.2782C20.2408 32.628 21.9168 34.5797 24.1147 35.0293C23.7211 35.1369 23.2922 35.1885 22.847 35.1885C22.5374 35.1885 22.2249 35.1708 21.9316 35.1059C22.5581 37.0208 24.3358 38.4285 26.4497 38.4742C24.8046 39.7611 22.7158 40.5365 20.4545 40.5365C20.058 40.5365 19.6777 40.5188 19.2974 40.4702C21.4392 41.8514 23.9776 42.64 26.715 42.64C35.6127 42.64 40.4772 35.2695 40.4772 28.8808C40.4772 28.667 40.4699 28.4607 40.4595 28.2558C41.4192 27.5747 42.2255 26.7242 42.883 25.7454Z" fill="#00ACEE"/>
</g>
<defs>
<linearGradient id="paint0_linear_65:9955" x1="4.44164" y1="-7.71786" x2="90.1133" y2="-0.0882665" gradientUnits="userSpaceOnUse">
<stop stop-color="#E4E9F4"/>
<stop offset="0.359375" stop-color="#F6F4FF"/>
<stop offset="1" stop-color="white"/>
</linearGradient>
<clipPath id="clip0_65:9955">
<rect width="23.5856" height="23.5856" fill="white" transform="translate(19.2974 21.2656)"/>
</clipPath>
</defs>
</svg>
